<mxfile host="app.diagrams.net" agent="Mozilla/5.0 (Windows NT 10.0; Win64; x64) AppleWebKit/537.36 (KHTML, like Gecko) Chrome/130.0.0.0 Safari/537.36" version="24.8.3">
  <diagram name="Page-1" id="MKWU-7uVFGgZ9CIJ0cix">
    <mxGraphModel dx="1790" dy="655" grid="1" gridSize="10" guides="1" tooltips="1" connect="1" arrows="1" fold="1" page="1" pageScale="1" pageWidth="827" pageHeight="1169" math="0" shadow="0">
      <root>
        <mxCell id="0" />
        <mxCell id="1" parent="0" />
        <mxCell id="ZjqDdG5RYQLZBD73El9B-1" value="start" style="ellipse;whiteSpace=wrap;html=1;" parent="1" vertex="1">
          <mxGeometry x="371" y="20" width="86" height="50" as="geometry" />
        </mxCell>
        <mxCell id="ZjqDdG5RYQLZBD73El9B-2" value="end" style="ellipse;whiteSpace=wrap;html=1;" parent="1" vertex="1">
          <mxGeometry x="414" y="1193" width="86" height="50" as="geometry" />
        </mxCell>
        <mxCell id="ZjqDdG5RYQLZBD73El9B-3" value="" style="endArrow=classic;html=1;rounded=0;" parent="1" edge="1">
          <mxGeometry width="50" height="50" relative="1" as="geometry">
            <mxPoint x="413" y="70" as="sourcePoint" />
            <mxPoint x="413" y="100" as="targetPoint" />
          </mxGeometry>
        </mxCell>
        <mxCell id="ZjqDdG5RYQLZBD73El9B-4" value="&lt;b&gt;&quot;please enter a number:&quot;&lt;/b&gt;" style="shape=document;whiteSpace=wrap;html=1;boundedLbl=1;" parent="1" vertex="1">
          <mxGeometry x="369" y="100" width="90" height="60" as="geometry" />
        </mxCell>
        <mxCell id="ZjqDdG5RYQLZBD73El9B-5" value="" style="endArrow=classic;html=1;rounded=0;" parent="1" edge="1">
          <mxGeometry width="50" height="50" relative="1" as="geometry">
            <mxPoint x="413" y="150" as="sourcePoint" />
            <mxPoint x="413" y="180" as="targetPoint" />
          </mxGeometry>
        </mxCell>
        <mxCell id="ZjqDdG5RYQLZBD73El9B-6" value="" style="endArrow=classic;html=1;rounded=0;exitX=0.463;exitY=0.848;exitDx=0;exitDy=0;exitPerimeter=0;entryX=0.5;entryY=0;entryDx=0;entryDy=0;" parent="1" edge="1" target="tH7y0Gw0cnMjXEwQEr8--1">
          <mxGeometry width="50" height="50" relative="1" as="geometry">
            <mxPoint x="408.6700000000001" y="229.36" as="sourcePoint" />
            <mxPoint x="409" y="280" as="targetPoint" />
          </mxGeometry>
        </mxCell>
        <mxCell id="ZjqDdG5RYQLZBD73El9B-7" value="num" style="html=1;strokeWidth=2;shape=manualInput;whiteSpace=wrap;rounded=1;size=26;arcSize=11;" parent="1" vertex="1">
          <mxGeometry x="367" y="170" width="82.5" height="60" as="geometry" />
        </mxCell>
        <mxCell id="tH7y0Gw0cnMjXEwQEr8--4" style="edgeStyle=orthogonalEdgeStyle;rounded=0;orthogonalLoop=1;jettySize=auto;html=1;entryX=0.5;entryY=0;entryDx=0;entryDy=0;" edge="1" parent="1" source="tH7y0Gw0cnMjXEwQEr8--1" target="tH7y0Gw0cnMjXEwQEr8--3">
          <mxGeometry relative="1" as="geometry" />
        </mxCell>
        <mxCell id="tH7y0Gw0cnMjXEwQEr8--1" value="i = 1;&lt;br&gt;i &amp;lt;= num&lt;br&gt;i++" style="ellipse;whiteSpace=wrap;html=1;aspect=fixed;" vertex="1" parent="1">
          <mxGeometry x="358.25" y="273" width="100" height="100" as="geometry" />
        </mxCell>
        <mxCell id="tH7y0Gw0cnMjXEwQEr8--6" style="edgeStyle=orthogonalEdgeStyle;rounded=0;orthogonalLoop=1;jettySize=auto;html=1;entryX=0.5;entryY=0;entryDx=0;entryDy=0;" edge="1" parent="1" source="tH7y0Gw0cnMjXEwQEr8--3" target="tH7y0Gw0cnMjXEwQEr8--5">
          <mxGeometry relative="1" as="geometry" />
        </mxCell>
        <mxCell id="tH7y0Gw0cnMjXEwQEr8--3" value="dup = i" style="rounded=0;whiteSpace=wrap;html=1;" vertex="1" parent="1">
          <mxGeometry x="348.25" y="403" width="120" height="60" as="geometry" />
        </mxCell>
        <mxCell id="tH7y0Gw0cnMjXEwQEr8--8" style="edgeStyle=orthogonalEdgeStyle;rounded=0;orthogonalLoop=1;jettySize=auto;html=1;entryX=0.5;entryY=0;entryDx=0;entryDy=0;" edge="1" parent="1" source="tH7y0Gw0cnMjXEwQEr8--5" target="tH7y0Gw0cnMjXEwQEr8--7">
          <mxGeometry relative="1" as="geometry" />
        </mxCell>
        <mxCell id="tH7y0Gw0cnMjXEwQEr8--13" style="edgeStyle=orthogonalEdgeStyle;rounded=0;orthogonalLoop=1;jettySize=auto;html=1;entryX=0.5;entryY=0;entryDx=0;entryDy=0;" edge="1" parent="1" source="tH7y0Gw0cnMjXEwQEr8--5" target="tH7y0Gw0cnMjXEwQEr8--10">
          <mxGeometry relative="1" as="geometry" />
        </mxCell>
        <mxCell id="tH7y0Gw0cnMjXEwQEr8--5" value="i % 7 === 0" style="rhombus;whiteSpace=wrap;html=1;" vertex="1" parent="1">
          <mxGeometry x="368.25" y="493" width="80" height="80" as="geometry" />
        </mxCell>
        <mxCell id="tH7y0Gw0cnMjXEwQEr8--7" value="&quot;Boom&quot;" style="shape=document;whiteSpace=wrap;html=1;boundedLbl=1;" vertex="1" parent="1">
          <mxGeometry x="620" y="608" width="110" height="50" as="geometry" />
        </mxCell>
        <mxCell id="tH7y0Gw0cnMjXEwQEr8--9" style="edgeStyle=orthogonalEdgeStyle;rounded=0;orthogonalLoop=1;jettySize=auto;html=1;entryX=0.005;entryY=0.431;entryDx=0;entryDy=0;entryPerimeter=0;" edge="1" parent="1" source="tH7y0Gw0cnMjXEwQEr8--7" target="tH7y0Gw0cnMjXEwQEr8--1">
          <mxGeometry relative="1" as="geometry">
            <Array as="points">
              <mxPoint x="670" y="1113" />
              <mxPoint x="40" y="1113" />
              <mxPoint x="40" y="316" />
            </Array>
          </mxGeometry>
        </mxCell>
        <mxCell id="tH7y0Gw0cnMjXEwQEr8--15" style="edgeStyle=orthogonalEdgeStyle;rounded=0;orthogonalLoop=1;jettySize=auto;html=1;" edge="1" parent="1" source="tH7y0Gw0cnMjXEwQEr8--10" target="tH7y0Gw0cnMjXEwQEr8--18">
          <mxGeometry relative="1" as="geometry">
            <mxPoint x="240" y="693" as="targetPoint" />
          </mxGeometry>
        </mxCell>
        <mxCell id="tH7y0Gw0cnMjXEwQEr8--31" style="edgeStyle=orthogonalEdgeStyle;rounded=0;orthogonalLoop=1;jettySize=auto;html=1;" edge="1" parent="1" source="tH7y0Gw0cnMjXEwQEr8--10" target="tH7y0Gw0cnMjXEwQEr8--32">
          <mxGeometry relative="1" as="geometry">
            <mxPoint x="410" y="633" as="targetPoint" />
            <Array as="points">
              <mxPoint x="555" y="633" />
            </Array>
          </mxGeometry>
        </mxCell>
        <mxCell id="tH7y0Gw0cnMjXEwQEr8--10" value="dup &amp;gt; 0" style="ellipse;whiteSpace=wrap;html=1;aspect=fixed;" vertex="1" parent="1">
          <mxGeometry x="200" y="593" width="80" height="80" as="geometry" />
        </mxCell>
        <mxCell id="tH7y0Gw0cnMjXEwQEr8--11" value="i" style="shape=document;whiteSpace=wrap;html=1;boundedLbl=1;" vertex="1" parent="1">
          <mxGeometry x="420" y="763" width="101.75" height="50" as="geometry" />
        </mxCell>
        <mxCell id="tH7y0Gw0cnMjXEwQEr8--39" style="edgeStyle=orthogonalEdgeStyle;rounded=0;orthogonalLoop=1;jettySize=auto;html=1;entryX=0.5;entryY=0;entryDx=0;entryDy=0;" edge="1" parent="1" source="tH7y0Gw0cnMjXEwQEr8--16" target="tH7y0Gw0cnMjXEwQEr8--38">
          <mxGeometry relative="1" as="geometry" />
        </mxCell>
        <mxCell id="tH7y0Gw0cnMjXEwQEr8--16" value="dup = dup / 10" style="rounded=0;whiteSpace=wrap;html=1;" vertex="1" parent="1">
          <mxGeometry x="70" y="803" width="120" height="60" as="geometry" />
        </mxCell>
        <mxCell id="tH7y0Gw0cnMjXEwQEr8--23" style="edgeStyle=orthogonalEdgeStyle;rounded=0;orthogonalLoop=1;jettySize=auto;html=1;entryX=0.5;entryY=0;entryDx=0;entryDy=0;" edge="1" parent="1" source="tH7y0Gw0cnMjXEwQEr8--18" target="tH7y0Gw0cnMjXEwQEr8--22">
          <mxGeometry relative="1" as="geometry" />
        </mxCell>
        <mxCell id="tH7y0Gw0cnMjXEwQEr8--29" style="edgeStyle=orthogonalEdgeStyle;rounded=0;orthogonalLoop=1;jettySize=auto;html=1;entryX=0.5;entryY=0;entryDx=0;entryDy=0;" edge="1" parent="1" source="tH7y0Gw0cnMjXEwQEr8--18" target="tH7y0Gw0cnMjXEwQEr8--16">
          <mxGeometry relative="1" as="geometry" />
        </mxCell>
        <mxCell id="tH7y0Gw0cnMjXEwQEr8--18" value="dup % 10 === 7" style="rhombus;whiteSpace=wrap;html=1;" vertex="1" parent="1">
          <mxGeometry x="195" y="723" width="90" height="100" as="geometry" />
        </mxCell>
        <mxCell id="tH7y0Gw0cnMjXEwQEr8--34" style="edgeStyle=orthogonalEdgeStyle;rounded=0;orthogonalLoop=1;jettySize=auto;html=1;entryX=0.5;entryY=0;entryDx=0;entryDy=0;" edge="1" parent="1" source="tH7y0Gw0cnMjXEwQEr8--22" target="tH7y0Gw0cnMjXEwQEr8--33">
          <mxGeometry relative="1" as="geometry" />
        </mxCell>
        <mxCell id="tH7y0Gw0cnMjXEwQEr8--22" value="&quot;Boom&quot;" style="shape=document;whiteSpace=wrap;html=1;boundedLbl=1;" vertex="1" parent="1">
          <mxGeometry x="290" y="813" width="110" height="50" as="geometry" />
        </mxCell>
        <mxCell id="tH7y0Gw0cnMjXEwQEr8--26" style="edgeStyle=orthogonalEdgeStyle;rounded=0;orthogonalLoop=1;jettySize=auto;html=1;entryX=1.002;entryY=0.606;entryDx=0;entryDy=0;entryPerimeter=0;" edge="1" parent="1" source="tH7y0Gw0cnMjXEwQEr8--1" target="ZjqDdG5RYQLZBD73El9B-2">
          <mxGeometry relative="1" as="geometry">
            <Array as="points">
              <mxPoint x="770" y="323" />
              <mxPoint x="770" y="1223" />
            </Array>
          </mxGeometry>
        </mxCell>
        <mxCell id="tH7y0Gw0cnMjXEwQEr8--37" style="edgeStyle=orthogonalEdgeStyle;rounded=0;orthogonalLoop=1;jettySize=auto;html=1;entryX=0.5;entryY=0;entryDx=0;entryDy=0;" edge="1" parent="1" source="tH7y0Gw0cnMjXEwQEr8--32" target="tH7y0Gw0cnMjXEwQEr8--11">
          <mxGeometry relative="1" as="geometry">
            <Array as="points">
              <mxPoint x="471" y="713" />
            </Array>
          </mxGeometry>
        </mxCell>
        <mxCell id="tH7y0Gw0cnMjXEwQEr8--32" value="help === 1" style="rhombus;whiteSpace=wrap;html=1;" vertex="1" parent="1">
          <mxGeometry x="510" y="663" width="90" height="100" as="geometry" />
        </mxCell>
        <mxCell id="tH7y0Gw0cnMjXEwQEr8--45" style="edgeStyle=orthogonalEdgeStyle;rounded=0;orthogonalLoop=1;jettySize=auto;html=1;entryX=0.5;entryY=0;entryDx=0;entryDy=0;" edge="1" parent="1" source="tH7y0Gw0cnMjXEwQEr8--33" target="tH7y0Gw0cnMjXEwQEr8--42">
          <mxGeometry relative="1" as="geometry" />
        </mxCell>
        <mxCell id="tH7y0Gw0cnMjXEwQEr8--33" value="help = 1" style="rounded=0;whiteSpace=wrap;html=1;" vertex="1" parent="1">
          <mxGeometry x="285" y="903" width="120" height="60" as="geometry" />
        </mxCell>
        <mxCell id="tH7y0Gw0cnMjXEwQEr8--35" style="edgeStyle=orthogonalEdgeStyle;rounded=0;orthogonalLoop=1;jettySize=auto;html=1;entryX=-0.016;entryY=0.435;entryDx=0;entryDy=0;entryPerimeter=0;" edge="1" parent="1" source="tH7y0Gw0cnMjXEwQEr8--32" target="tH7y0Gw0cnMjXEwQEr8--1">
          <mxGeometry relative="1" as="geometry">
            <Array as="points">
              <mxPoint x="620" y="713" />
              <mxPoint x="620" y="1113" />
              <mxPoint x="40" y="1113" />
              <mxPoint x="40" y="316" />
            </Array>
          </mxGeometry>
        </mxCell>
        <mxCell id="tH7y0Gw0cnMjXEwQEr8--41" style="edgeStyle=orthogonalEdgeStyle;rounded=0;orthogonalLoop=1;jettySize=auto;html=1;" edge="1" parent="1" source="tH7y0Gw0cnMjXEwQEr8--38">
          <mxGeometry relative="1" as="geometry">
            <mxPoint x="200" y="633" as="targetPoint" />
            <Array as="points">
              <mxPoint x="130" y="1090" />
              <mxPoint x="50" y="1090" />
              <mxPoint x="50" y="633" />
            </Array>
          </mxGeometry>
        </mxCell>
        <mxCell id="tH7y0Gw0cnMjXEwQEr8--38" value="help = 2" style="rounded=0;whiteSpace=wrap;html=1;" vertex="1" parent="1">
          <mxGeometry x="70" y="903" width="120" height="60" as="geometry" />
        </mxCell>
        <mxCell id="tH7y0Gw0cnMjXEwQEr8--44" style="edgeStyle=orthogonalEdgeStyle;rounded=0;orthogonalLoop=1;jettySize=auto;html=1;entryX=0;entryY=0.5;entryDx=0;entryDy=0;" edge="1" parent="1" source="tH7y0Gw0cnMjXEwQEr8--42" target="tH7y0Gw0cnMjXEwQEr8--10">
          <mxGeometry relative="1" as="geometry">
            <Array as="points">
              <mxPoint x="345" y="1090" />
              <mxPoint x="50" y="1090" />
              <mxPoint x="50" y="633" />
            </Array>
          </mxGeometry>
        </mxCell>
        <mxCell id="tH7y0Gw0cnMjXEwQEr8--42" value="dup = 0" style="rounded=0;whiteSpace=wrap;html=1;" vertex="1" parent="1">
          <mxGeometry x="285" y="990" width="120" height="60" as="geometry" />
        </mxCell>
        <mxCell id="tH7y0Gw0cnMjXEwQEr8--46" value="start" style="ellipse;whiteSpace=wrap;html=1;" vertex="1" parent="1">
          <mxGeometry x="401" y="1315" width="86" height="50" as="geometry" />
        </mxCell>
        <mxCell id="tH7y0Gw0cnMjXEwQEr8--47" value="end" style="ellipse;whiteSpace=wrap;html=1;" vertex="1" parent="1">
          <mxGeometry x="444" y="2488" width="86" height="50" as="geometry" />
        </mxCell>
        <mxCell id="tH7y0Gw0cnMjXEwQEr8--48" value="" style="endArrow=classic;html=1;rounded=0;" edge="1" parent="1">
          <mxGeometry width="50" height="50" relative="1" as="geometry">
            <mxPoint x="443" y="1365" as="sourcePoint" />
            <mxPoint x="443" y="1395" as="targetPoint" />
          </mxGeometry>
        </mxCell>
        <mxCell id="tH7y0Gw0cnMjXEwQEr8--49" value="&lt;b&gt;&quot;please enter a number:&quot;&lt;/b&gt;" style="shape=document;whiteSpace=wrap;html=1;boundedLbl=1;" vertex="1" parent="1">
          <mxGeometry x="399" y="1395" width="90" height="60" as="geometry" />
        </mxCell>
        <mxCell id="tH7y0Gw0cnMjXEwQEr8--50" value="" style="endArrow=classic;html=1;rounded=0;" edge="1" parent="1">
          <mxGeometry width="50" height="50" relative="1" as="geometry">
            <mxPoint x="443" y="1445" as="sourcePoint" />
            <mxPoint x="443" y="1475" as="targetPoint" />
          </mxGeometry>
        </mxCell>
        <mxCell id="tH7y0Gw0cnMjXEwQEr8--51" value="" style="endArrow=classic;html=1;rounded=0;exitX=0.463;exitY=0.848;exitDx=0;exitDy=0;exitPerimeter=0;entryX=0.5;entryY=0;entryDx=0;entryDy=0;" edge="1" parent="1" target="tH7y0Gw0cnMjXEwQEr8--54">
          <mxGeometry width="50" height="50" relative="1" as="geometry">
            <mxPoint x="438.6700000000001" y="1524.3600000000001" as="sourcePoint" />
            <mxPoint x="439" y="1575" as="targetPoint" />
          </mxGeometry>
        </mxCell>
        <mxCell id="tH7y0Gw0cnMjXEwQEr8--52" value="num" style="html=1;strokeWidth=2;shape=manualInput;whiteSpace=wrap;rounded=1;size=26;arcSize=11;" vertex="1" parent="1">
          <mxGeometry x="397" y="1465" width="82.5" height="60" as="geometry" />
        </mxCell>
        <mxCell id="tH7y0Gw0cnMjXEwQEr8--53" style="edgeStyle=orthogonalEdgeStyle;rounded=0;orthogonalLoop=1;jettySize=auto;html=1;entryX=0.5;entryY=0;entryDx=0;entryDy=0;" edge="1" parent="1" source="tH7y0Gw0cnMjXEwQEr8--54" target="tH7y0Gw0cnMjXEwQEr8--56">
          <mxGeometry relative="1" as="geometry" />
        </mxCell>
        <mxCell id="tH7y0Gw0cnMjXEwQEr8--54" value="i = 1;&lt;br&gt;i &amp;lt;= num&lt;br&gt;i++" style="ellipse;whiteSpace=wrap;html=1;aspect=fixed;" vertex="1" parent="1">
          <mxGeometry x="388.25" y="1568" width="100" height="100" as="geometry" />
        </mxCell>
        <mxCell id="tH7y0Gw0cnMjXEwQEr8--55" style="edgeStyle=orthogonalEdgeStyle;rounded=0;orthogonalLoop=1;jettySize=auto;html=1;entryX=0.5;entryY=0;entryDx=0;entryDy=0;" edge="1" parent="1" source="tH7y0Gw0cnMjXEwQEr8--56" target="tH7y0Gw0cnMjXEwQEr8--59">
          <mxGeometry relative="1" as="geometry" />
        </mxCell>
        <mxCell id="tH7y0Gw0cnMjXEwQEr8--56" value="dup = i" style="rounded=0;whiteSpace=wrap;html=1;" vertex="1" parent="1">
          <mxGeometry x="378.25" y="1698" width="120" height="60" as="geometry" />
        </mxCell>
        <mxCell id="tH7y0Gw0cnMjXEwQEr8--57" style="edgeStyle=orthogonalEdgeStyle;rounded=0;orthogonalLoop=1;jettySize=auto;html=1;entryX=0.5;entryY=0;entryDx=0;entryDy=0;" edge="1" parent="1" source="tH7y0Gw0cnMjXEwQEr8--59" target="tH7y0Gw0cnMjXEwQEr8--60">
          <mxGeometry relative="1" as="geometry" />
        </mxCell>
        <mxCell id="tH7y0Gw0cnMjXEwQEr8--58" style="edgeStyle=orthogonalEdgeStyle;rounded=0;orthogonalLoop=1;jettySize=auto;html=1;entryX=0.5;entryY=0;entryDx=0;entryDy=0;" edge="1" parent="1" source="tH7y0Gw0cnMjXEwQEr8--59" target="tH7y0Gw0cnMjXEwQEr8--64">
          <mxGeometry relative="1" as="geometry" />
        </mxCell>
        <mxCell id="tH7y0Gw0cnMjXEwQEr8--59" value="i % 7 === 0" style="rhombus;whiteSpace=wrap;html=1;" vertex="1" parent="1">
          <mxGeometry x="398.25" y="1788" width="80" height="80" as="geometry" />
        </mxCell>
        <mxCell id="tH7y0Gw0cnMjXEwQEr8--60" value="&quot;Boom&quot;" style="shape=document;whiteSpace=wrap;html=1;boundedLbl=1;" vertex="1" parent="1">
          <mxGeometry x="650" y="1903" width="110" height="50" as="geometry" />
        </mxCell>
        <mxCell id="tH7y0Gw0cnMjXEwQEr8--61" style="edgeStyle=orthogonalEdgeStyle;rounded=0;orthogonalLoop=1;jettySize=auto;html=1;entryX=0.005;entryY=0.431;entryDx=0;entryDy=0;entryPerimeter=0;" edge="1" parent="1" source="tH7y0Gw0cnMjXEwQEr8--60" target="tH7y0Gw0cnMjXEwQEr8--54">
          <mxGeometry relative="1" as="geometry">
            <Array as="points">
              <mxPoint x="700" y="2408" />
              <mxPoint x="20" y="2408" />
              <mxPoint x="20" y="1611" />
            </Array>
          </mxGeometry>
        </mxCell>
        <mxCell id="tH7y0Gw0cnMjXEwQEr8--62" style="edgeStyle=orthogonalEdgeStyle;rounded=0;orthogonalLoop=1;jettySize=auto;html=1;" edge="1" parent="1" source="tH7y0Gw0cnMjXEwQEr8--64" target="tH7y0Gw0cnMjXEwQEr8--70">
          <mxGeometry relative="1" as="geometry">
            <mxPoint x="270" y="1988" as="targetPoint" />
          </mxGeometry>
        </mxCell>
        <mxCell id="tH7y0Gw0cnMjXEwQEr8--64" value="dup &amp;gt; 0" style="ellipse;whiteSpace=wrap;html=1;aspect=fixed;" vertex="1" parent="1">
          <mxGeometry x="230" y="1888" width="80" height="80" as="geometry" />
        </mxCell>
        <mxCell id="tH7y0Gw0cnMjXEwQEr8--87" style="edgeStyle=orthogonalEdgeStyle;rounded=0;orthogonalLoop=1;jettySize=auto;html=1;entryX=0;entryY=0.5;entryDx=0;entryDy=0;" edge="1" parent="1" source="tH7y0Gw0cnMjXEwQEr8--65" target="tH7y0Gw0cnMjXEwQEr8--64">
          <mxGeometry relative="1" as="geometry">
            <Array as="points">
              <mxPoint x="30" y="2345" />
              <mxPoint x="30" y="1928" />
            </Array>
          </mxGeometry>
        </mxCell>
        <mxCell id="tH7y0Gw0cnMjXEwQEr8--65" value="i" style="shape=document;whiteSpace=wrap;html=1;boundedLbl=1;" vertex="1" parent="1">
          <mxGeometry x="200" y="2320" width="101.75" height="50" as="geometry" />
        </mxCell>
        <mxCell id="tH7y0Gw0cnMjXEwQEr8--66" style="edgeStyle=orthogonalEdgeStyle;rounded=0;orthogonalLoop=1;jettySize=auto;html=1;entryX=0.5;entryY=0;entryDx=0;entryDy=0;" edge="1" parent="1" source="tH7y0Gw0cnMjXEwQEr8--67">
          <mxGeometry relative="1" as="geometry">
            <mxPoint x="160" y="2198" as="targetPoint" />
          </mxGeometry>
        </mxCell>
        <mxCell id="tH7y0Gw0cnMjXEwQEr8--67" value="dup = dup / 10" style="rounded=0;whiteSpace=wrap;html=1;" vertex="1" parent="1">
          <mxGeometry x="100" y="2098" width="120" height="60" as="geometry" />
        </mxCell>
        <mxCell id="tH7y0Gw0cnMjXEwQEr8--68" style="edgeStyle=orthogonalEdgeStyle;rounded=0;orthogonalLoop=1;jettySize=auto;html=1;entryX=0.5;entryY=0;entryDx=0;entryDy=0;" edge="1" parent="1" source="tH7y0Gw0cnMjXEwQEr8--70" target="tH7y0Gw0cnMjXEwQEr8--72">
          <mxGeometry relative="1" as="geometry" />
        </mxCell>
        <mxCell id="tH7y0Gw0cnMjXEwQEr8--69" style="edgeStyle=orthogonalEdgeStyle;rounded=0;orthogonalLoop=1;jettySize=auto;html=1;entryX=0.5;entryY=0;entryDx=0;entryDy=0;" edge="1" parent="1" source="tH7y0Gw0cnMjXEwQEr8--70" target="tH7y0Gw0cnMjXEwQEr8--67">
          <mxGeometry relative="1" as="geometry" />
        </mxCell>
        <mxCell id="tH7y0Gw0cnMjXEwQEr8--70" value="dup % 10 === 7" style="rhombus;whiteSpace=wrap;html=1;" vertex="1" parent="1">
          <mxGeometry x="225" y="2018" width="90" height="100" as="geometry" />
        </mxCell>
        <mxCell id="tH7y0Gw0cnMjXEwQEr8--88" style="edgeStyle=orthogonalEdgeStyle;rounded=0;orthogonalLoop=1;jettySize=auto;html=1;" edge="1" parent="1" source="tH7y0Gw0cnMjXEwQEr8--72" target="tH7y0Gw0cnMjXEwQEr8--82">
          <mxGeometry relative="1" as="geometry" />
        </mxCell>
        <mxCell id="tH7y0Gw0cnMjXEwQEr8--72" value="&quot;Boom&quot;" style="shape=document;whiteSpace=wrap;html=1;boundedLbl=1;" vertex="1" parent="1">
          <mxGeometry x="320" y="2108" width="110" height="50" as="geometry" />
        </mxCell>
        <mxCell id="tH7y0Gw0cnMjXEwQEr8--73" style="edgeStyle=orthogonalEdgeStyle;rounded=0;orthogonalLoop=1;jettySize=auto;html=1;entryX=1.002;entryY=0.606;entryDx=0;entryDy=0;entryPerimeter=0;" edge="1" parent="1" source="tH7y0Gw0cnMjXEwQEr8--54" target="tH7y0Gw0cnMjXEwQEr8--47">
          <mxGeometry relative="1" as="geometry">
            <Array as="points">
              <mxPoint x="800" y="1618" />
              <mxPoint x="800" y="2518" />
            </Array>
          </mxGeometry>
        </mxCell>
        <mxCell id="tH7y0Gw0cnMjXEwQEr8--81" style="edgeStyle=orthogonalEdgeStyle;rounded=0;orthogonalLoop=1;jettySize=auto;html=1;entryX=0;entryY=0.5;entryDx=0;entryDy=0;" edge="1" parent="1" source="tH7y0Gw0cnMjXEwQEr8--82" target="tH7y0Gw0cnMjXEwQEr8--64">
          <mxGeometry relative="1" as="geometry">
            <Array as="points">
              <mxPoint x="375" y="2385" />
              <mxPoint x="30" y="2385" />
              <mxPoint x="30" y="1928" />
            </Array>
          </mxGeometry>
        </mxCell>
        <mxCell id="tH7y0Gw0cnMjXEwQEr8--82" value="dup = 0" style="rounded=0;whiteSpace=wrap;html=1;" vertex="1" parent="1">
          <mxGeometry x="315" y="2200" width="120" height="60" as="geometry" />
        </mxCell>
        <mxCell id="tH7y0Gw0cnMjXEwQEr8--85" style="edgeStyle=orthogonalEdgeStyle;rounded=0;orthogonalLoop=1;jettySize=auto;html=1;" edge="1" parent="1" source="tH7y0Gw0cnMjXEwQEr8--83">
          <mxGeometry relative="1" as="geometry">
            <mxPoint x="250" y="2320" as="targetPoint" />
          </mxGeometry>
        </mxCell>
        <mxCell id="tH7y0Gw0cnMjXEwQEr8--86" style="edgeStyle=orthogonalEdgeStyle;rounded=0;orthogonalLoop=1;jettySize=auto;html=1;entryX=0;entryY=0.5;entryDx=0;entryDy=0;" edge="1" parent="1" source="tH7y0Gw0cnMjXEwQEr8--83" target="tH7y0Gw0cnMjXEwQEr8--64">
          <mxGeometry relative="1" as="geometry">
            <Array as="points">
              <mxPoint x="30" y="2250" />
              <mxPoint x="30" y="1928" />
            </Array>
          </mxGeometry>
        </mxCell>
        <mxCell id="tH7y0Gw0cnMjXEwQEr8--83" value="dup === 0" style="rhombus;whiteSpace=wrap;html=1;" vertex="1" parent="1">
          <mxGeometry x="115" y="2200" width="90" height="100" as="geometry" />
        </mxCell>
        <mxCell id="tH7y0Gw0cnMjXEwQEr8--90" style="edgeStyle=orthogonalEdgeStyle;rounded=0;orthogonalLoop=1;jettySize=auto;html=1;entryX=-0.025;entryY=0.42;entryDx=0;entryDy=0;entryPerimeter=0;" edge="1" parent="1" source="tH7y0Gw0cnMjXEwQEr8--64" target="tH7y0Gw0cnMjXEwQEr8--54">
          <mxGeometry relative="1" as="geometry">
            <Array as="points">
              <mxPoint x="580" y="1928" />
              <mxPoint x="580" y="2410" />
              <mxPoint x="20" y="2410" />
              <mxPoint x="20" y="1610" />
            </Array>
          </mxGeometry>
        </mxCell>
      </root>
    </mxGraphModel>
  </diagram>
</mxfile>
